<svg width="160" height="56" viewBox="0 0 160 56" fill="none" xmlns="http://www.w3.org/2000/svg">
<path d="M3.10485 43.0838V20.569H1.18421L0 15.8063H13.6628C16.727 15.8063 19.0029 16.4613 20.4905 17.7713C21.9782 19.0592 22.722 20.8466 22.722 23.1336C22.722 24.3548 22.4334 25.4428 21.8561 26.3976C21.301 27.3301 20.5683 28.0629 19.6579 28.5958C20.6793 29.0176 21.6007 29.7837 22.4223 30.8939C23.2438 31.9819 23.6546 33.3363 23.6546 34.9572C23.6546 37.333 22.8886 39.287 21.3565 40.819C19.8244 42.3289 17.7039 43.0838 14.9951 43.0838H3.10485ZM8.63363 38.3544H14.1957C15.1727 38.3544 16.0275 38.0657 16.7603 37.4884C17.5152 36.9111 17.8927 36.0674 17.8927 34.9572C17.8927 33.9358 17.5596 33.0921 16.8935 32.4259C16.2496 31.7376 15.3059 31.3935 14.0625 31.3935H8.63363V38.3544ZM8.63363 26.7306H13.2299C14.3623 26.7306 15.2615 26.4642 15.9276 25.9313C16.616 25.3984 16.9601 24.6101 16.9601 23.5666C16.9601 21.5682 15.75 20.569 13.3298 20.569H8.63363V26.7306Z" fill="black"/>
<path d="M25.986 32.9921C25.986 29.7282 26.8964 27.1525 28.7171 25.2652C30.5378 23.3778 32.7915 22.4342 35.4782 22.4342C38.0761 22.4342 40.2743 23.4111 42.0728 25.3651C43.8935 27.2968 44.8039 29.8392 44.8039 32.9921C44.8039 33.6361 44.7706 34.28 44.7039 34.9239H31.3816C31.3816 36.1895 31.7812 37.2664 32.5806 38.1546C33.3799 39.0205 34.4568 39.4535 35.8113 39.4535C36.8104 39.4535 37.6764 39.2092 38.4091 38.7208C39.1641 38.2101 39.7303 37.5661 40.1077 36.789L44.5374 38.3544C43.8713 39.8421 42.7833 41.1077 41.2734 42.1513C39.7636 43.1726 37.8873 43.6833 35.6447 43.6833C32.8248 43.6833 30.5045 42.7175 28.6838 40.7857C26.8853 38.854 25.986 36.2561 25.986 32.9921ZM31.4149 31.2935H39.375C39.375 30.0057 39.0308 28.9066 38.3425 27.9962C37.6764 27.0637 36.7216 26.5974 35.4782 26.5974C34.2126 26.5974 33.2134 27.0637 32.4807 27.9962C31.7701 28.9288 31.4149 30.0279 31.4149 31.2935Z" fill="black"/>
<path d="M52.2311 33.0587C52.2311 35.2569 52.6419 36.8223 53.4634 37.7549C54.2849 38.6874 55.1953 39.1537 56.1945 39.1537C56.6164 39.1537 57.0271 39.0649 57.4268 38.8873C57.8487 38.6874 58.2706 38.3877 58.6924 37.988C59.1143 37.5661 59.4585 36.9333 59.7249 36.0896C59.9914 35.2236 60.1246 34.2134 60.1246 33.0587C60.1246 31.8819 59.9914 30.8717 59.7249 30.0279C59.4807 29.1842 59.1365 28.5513 58.6924 28.1295C58.2706 27.7076 57.8487 27.4078 57.4268 27.2302C57.0271 27.0526 56.6164 26.9638 56.1945 26.9638C55.1953 26.9638 54.2849 27.43 53.4634 28.3626C52.6419 29.273 52.2311 30.8384 52.2311 33.0587ZM46.7689 33.0587C46.7689 31.6821 46.9465 30.3832 47.3018 29.162C47.6571 27.9185 48.19 26.7861 48.9005 25.7648C49.6332 24.7434 50.6213 23.9329 51.8647 23.3334C53.1303 22.7339 54.5736 22.4342 56.1945 22.4342C57.8154 22.4342 59.2475 22.7339 60.491 23.3334C61.7344 23.9329 62.7113 24.7434 63.4219 25.7648C64.1546 26.7861 64.6986 27.9185 65.0539 29.162C65.4091 30.3832 65.5868 31.6821 65.5868 33.0587C65.5868 33.9469 65.509 34.8351 65.3536 35.7232C65.1982 36.5892 64.8984 37.5217 64.4544 38.5209C64.0325 39.4979 63.4885 40.3638 62.8224 41.1188C62.1562 41.8515 61.2459 42.4621 60.0913 42.9506C58.9589 43.4391 57.6599 43.6833 56.1945 43.6833C54.7512 43.6833 53.4634 43.4502 52.331 42.9839C51.1986 42.5176 50.2882 41.9292 49.5999 41.2187C48.9116 40.486 48.3454 39.6422 47.9013 38.6874C47.4794 37.7105 47.1797 36.7668 47.0021 35.8564C46.8466 34.9461 46.7689 34.0135 46.7689 33.0587Z" fill="black"/>
<path d="M68.6509 43.0838V23.0337H73.7467V24.9987H73.78C74.868 23.289 76.5666 22.4342 78.8758 22.4342C83.2944 22.4342 85.5037 25.032 85.5037 30.2277V43.0838H80.2081V30.8606C80.2081 29.4395 80.0082 28.4403 79.6085 27.863C79.2089 27.2635 78.5761 26.9638 77.7101 26.9638C76.5999 26.9638 75.7007 27.4189 75.0123 28.3293C74.324 29.2175 73.9798 30.3388 73.9798 31.6932V43.0838H68.6509Z" fill="black"/>
<path d="M89.3672 43.0838V23.0337H94.463V24.7323C94.8849 24.1106 95.4844 23.5777 96.2615 23.1336C97.0609 22.6673 97.949 22.4342 98.926 22.4342C100.081 22.4342 100.902 22.5563 101.391 22.8005V27.6632C100.613 27.4189 99.7919 27.2968 98.926 27.2968C97.5049 27.2968 96.4391 27.8519 95.7286 28.9621C95.0403 30.0723 94.6961 31.56 94.6961 33.4251V43.0838H89.3672Z" fill="black"/>
<path d="M107.552 37.1554C107.552 37.7549 107.785 38.2656 108.252 38.6874C108.718 39.0871 109.317 39.287 110.05 39.287C111.227 39.287 112.226 38.8873 113.048 38.0879C113.869 37.2886 114.28 36.2228 114.28 34.8906V33.5583C112.992 33.8692 111.971 34.0801 111.216 34.1911C108.773 34.5464 107.552 35.5345 107.552 37.1554ZM102.157 37.6217C102.157 35.8009 102.856 34.2911 104.255 33.0921C105.654 31.893 107.708 31.0937 110.417 30.694C112.637 30.3388 113.925 30.1056 114.28 29.9946V28.9621C114.28 28.1406 113.991 27.5411 113.414 27.1636C112.859 26.7639 112.126 26.5641 111.216 26.5641C109.129 26.5641 107.33 27.3856 105.82 29.0287L102.69 26.331C104.866 23.7331 107.685 22.4342 111.149 22.4342C114.213 22.4342 116.389 23.1669 117.677 24.6324C118.965 26.0978 119.609 28.1739 119.609 30.8606V43.0838H114.447V41.0189C114.047 41.7738 113.381 42.4066 112.448 42.9173C111.516 43.428 110.45 43.6833 109.251 43.6833C107.075 43.6833 105.343 43.1282 104.055 42.018C102.789 40.8856 102.157 39.4202 102.157 37.6217Z" fill="black"/>
<path d="M123.706 43.0838V23.0337H128.968V43.0838H123.706Z" fill="black"/>
<path d="M133.664 43.0838V14.9736H138.993V43.0838H133.664Z" fill="black"/>
<path d="M142.024 38.7541L145.754 36.5559C147.109 38.4654 148.807 39.4202 150.85 39.4202C151.694 39.4202 152.349 39.2425 152.815 38.8873C153.303 38.5098 153.548 38.0546 153.548 37.5217C153.548 37.3441 153.514 37.1665 153.448 36.9888C153.403 36.8112 153.315 36.6558 153.181 36.5226C153.07 36.3671 152.948 36.2339 152.815 36.1229C152.682 36.0119 152.493 35.9009 152.249 35.7898C152.027 35.6566 151.827 35.5567 151.649 35.4901C151.472 35.4013 151.227 35.3013 150.917 35.1903C150.628 35.0793 150.384 35.0016 150.184 34.9572C149.984 34.8906 149.706 34.8018 149.351 34.6907C148.996 34.5797 148.729 34.4909 148.552 34.4243C146.864 33.8692 145.51 33.1476 144.488 32.2594C143.489 31.3712 142.99 30.0723 142.99 28.3626C142.99 26.5419 143.767 25.0986 145.321 24.0328C146.898 22.9671 148.752 22.4342 150.883 22.4342C152.549 22.4342 154.136 22.8782 155.646 23.7664C157.178 24.6324 158.322 25.7759 159.076 27.1969L155.579 29.2619C154.158 27.5522 152.615 26.6973 150.95 26.6973C150.15 26.6973 149.518 26.8638 149.051 27.1969C148.607 27.53 148.385 27.9518 148.385 28.4625C148.385 28.7068 148.43 28.9399 148.518 29.162C148.607 29.3618 148.752 29.5505 148.951 29.7282C149.174 29.9058 149.373 30.0612 149.551 30.1944C149.751 30.3277 150.028 30.4609 150.384 30.5941C150.761 30.7273 151.05 30.8384 151.25 30.9272C151.472 30.9938 151.816 31.1048 152.282 31.2602C152.748 31.3935 153.081 31.4934 153.281 31.56C157.1 32.8478 159.01 34.8573 159.01 37.5884C159.01 39.2759 158.322 40.7191 156.945 41.9181C155.568 43.0949 153.592 43.6833 151.016 43.6833C148.996 43.6833 147.186 43.2393 145.588 42.3511C144.011 41.4407 142.823 40.2417 142.024 38.7541Z" fill="black"/>
<path d="M0 55L159.158 55" stroke="black" stroke-width="1.5"/>
<path d="M0 49.3159L159.158 49.3159" stroke="black" stroke-width="1.5"/>
<circle cx="126.237" cy="9.52606" r="1.65789" stroke="black"/>
<circle cx="126.237" cy="16.3948" r="2.84211" stroke="black" stroke-width="1.5"/>
<path d="M114.989 12.5563L115.667 12.2375L115.217 11.2779L114.462 12.0223L114.989 12.5563ZM105.329 12.3716L105.876 11.858L105.246 11.1875L104.716 11.9398L105.329 12.3716ZM95.8904 11.8404L96.5482 11.4802L96.0352 10.5434L95.3282 11.344L95.8904 11.8404ZM95.4581 7.52153L95.0048 8.11905L95.8577 8.76604L96.1745 7.74352L95.4581 7.52153ZM104.189 4.77442L103.728 5.36652L104.455 5.93167L104.862 5.10547L104.189 4.77442ZM116.992 7.4364L116.243 7.47066L116.291 8.53158L117.275 8.131L116.992 7.4364ZM114.462 12.0223C113.378 13.0914 111.891 13.75 110.249 13.75V15.25C112.301 15.25 114.162 14.425 115.515 13.0904L114.462 12.0223ZM110.249 13.75C108.525 13.75 106.971 13.0236 105.876 11.858L104.783 12.8852C106.15 14.3399 108.094 15.25 110.249 15.25V13.75ZM104.716 11.9398C103.843 13.1794 102.404 13.9868 100.775 13.9868V15.4868C102.912 15.4868 104.801 14.4249 105.943 12.8034L104.716 11.9398ZM100.775 13.9868C98.9537 13.9868 97.3671 12.9755 96.5482 11.4802L95.2326 12.2007C96.304 14.1573 98.3839 15.4868 100.775 15.4868V13.9868ZM95.3282 11.344C94.9221 11.8039 94.3304 12.0921 93.6705 12.0921V13.5921C94.7785 13.5921 95.7738 13.1055 96.4526 12.3369L95.3282 11.344ZM93.6705 12.0921C92.4496 12.0921 91.46 11.1024 91.46 9.88161H89.96C89.96 11.9309 91.6212 13.5921 93.6705 13.5921V12.0921ZM91.46 9.88161C91.46 8.66077 92.4496 7.67108 93.6705 7.67108V6.17108C91.6212 6.17108 89.96 7.83234 89.96 9.88161H91.46ZM93.6705 7.67108C94.1728 7.67108 94.634 7.83771 95.0048 8.11905L95.9114 6.92402C95.2888 6.45169 94.5114 6.17108 93.6705 6.17108V7.67108ZM96.1745 7.74352C96.783 5.78001 98.6138 4.35522 100.775 4.35522V2.85522C97.9379 2.85522 95.5392 4.72594 94.7417 7.29955L96.1745 7.74352ZM100.775 4.35522C101.889 4.35522 102.913 4.73243 103.728 5.36652L104.649 4.18232C103.58 3.3508 102.234 2.85522 100.775 2.85522V4.35522ZM104.862 5.10547C105.84 3.11629 107.886 1.75 110.249 1.75V0.25C107.293 0.25 104.737 1.96095 103.516 4.44337L104.862 5.10547ZM110.249 1.75C113.469 1.75 116.097 4.28695 116.243 7.47066L117.741 7.40214C117.559 3.42117 114.275 0.25 110.249 0.25V1.75ZM117.275 8.131C117.628 7.98742 118.014 7.90793 118.421 7.90793V6.40793C117.817 6.40793 117.238 6.5263 116.709 6.74179L117.275 8.131ZM118.421 7.90793C120.099 7.90793 121.46 9.26875 121.46 10.9474H122.96C122.96 8.44032 120.928 6.40793 118.421 6.40793V7.90793ZM121.46 10.9474C121.46 12.6261 120.099 13.9869 118.421 13.9869V15.4869C120.928 15.4869 122.96 13.4545 122.96 10.9474H121.46ZM118.421 13.9869C117.204 13.9869 116.154 13.2727 115.667 12.2375L114.31 12.8752C115.034 14.4168 116.601 15.4869 118.421 15.4869V13.9869Z" fill="black"/>
</svg>
