<svg width="128" height="64" viewBox="0 0 128 64" fill="none" xmlns="http://www.w3.org/2000/svg">
<g clip-path="url(#clip0)">
<path d="M47.3297 63.8238C45.4339 63.8238 43.5806 63.2575 42.0043 62.1964C40.4279 61.1353 39.1993 59.6272 38.4738 57.8627C37.7483 56.0982 37.5585 54.1566 37.9283 52.2834C38.2982 50.4102 39.2111 48.6896 40.5517 47.3391C41.8923 45.9886 43.6003 45.0689 45.4597 44.6963C47.3191 44.3237 49.2464 44.5149 50.998 45.2458C52.7495 45.9767 54.2466 47.2144 55.2999 48.8024C56.3531 50.3904 56.9153 52.2574 56.9153 54.1673C56.9127 56.7276 55.9019 59.1822 54.1049 60.9926C52.3078 62.8029 49.8712 63.8212 47.3297 63.8238V63.8238ZM47.3297 46.8526C45.893 46.8521 44.4883 47.2809 43.2935 48.0848C42.0986 48.8886 41.1673 50.0313 40.6172 51.3685C40.0672 52.7056 39.9231 54.1771 40.2033 55.5967C40.4835 57.0163 41.1753 58.3203 42.1912 59.3438C43.2072 60.3673 44.5016 61.0642 45.9108 61.3465C47.32 61.6288 48.7807 61.4836 50.108 60.9295C51.4353 60.3754 52.5697 59.4371 53.3676 58.2334C54.1655 57.0298 54.5911 55.6147 54.5906 54.1673C54.5913 52.2262 53.8268 50.3643 52.4653 48.9908C51.1038 47.6173 49.2566 46.8446 47.3297 46.8426V46.8526Z" fill="#BC8762"/>
<path d="M20.236 63.8242C20.0835 63.8242 19.9325 63.7939 19.7916 63.735C19.6507 63.6761 19.5227 63.5898 19.415 63.4811C19.3073 63.3723 19.2219 63.2432 19.1637 63.1012C19.1056 62.9591 19.0758 62.8069 19.0762 62.6533V54.2405C19.0788 51.6807 20.0892 49.2265 21.8858 47.4161C23.6823 45.6058 26.1183 44.5873 28.6593 44.584C28.9675 44.584 29.2632 44.7074 29.4812 44.9269C29.6992 45.1465 29.8216 45.4444 29.8216 45.7549C29.8216 46.0655 29.6992 46.3633 29.4812 46.5829C29.2632 46.8025 28.9675 46.9259 28.6593 46.9259C26.7342 46.9279 24.8885 47.6992 23.5272 49.0705C22.166 50.4418 21.4003 52.3012 21.3984 54.2405V62.6432C21.4 62.7979 21.3712 62.9514 21.3135 63.0948C21.2557 63.2382 21.1704 63.3686 21.0622 63.4784C20.9541 63.5883 20.8254 63.6754 20.6835 63.7348C20.5417 63.7942 20.3896 63.8245 20.236 63.8242V63.8242Z" fill="#BC8762"/>
<path d="M118.359 63.8238C116.464 63.8213 114.613 63.2531 113.038 62.191C111.464 61.1289 110.237 59.6204 109.513 57.8563C108.789 56.0922 108.601 54.1515 108.971 52.2794C109.342 50.4073 110.255 48.6878 111.595 47.3382C112.935 45.9886 114.642 45.0693 116.5 44.6966C118.359 44.3239 120.285 44.5144 122.036 45.2441C123.787 45.9738 125.284 47.21 126.338 48.7964C127.392 50.3828 127.955 52.2483 127.957 54.1572C127.957 55.4269 127.709 56.6841 127.227 57.8571C126.744 59.03 126.037 60.0958 125.146 60.9934C124.255 61.8911 123.197 62.6031 122.032 63.0887C120.868 63.5744 119.62 63.8242 118.359 63.8238V63.8238ZM118.359 46.8526C116.922 46.8521 115.518 47.2809 114.323 48.0848C113.128 48.8886 112.197 50.0313 111.647 51.3685C111.097 52.7056 110.953 54.1771 111.233 55.5967C111.513 57.0163 112.205 58.3203 113.221 59.3438C114.237 60.3673 115.531 61.0642 116.94 61.3465C118.35 61.6287 119.81 61.4836 121.137 60.9295C122.465 60.3754 123.599 59.4371 124.397 58.2334C125.195 57.0297 125.621 55.6147 125.62 54.1673C125.621 52.2262 124.856 50.3643 123.495 48.9908C122.133 47.6173 120.286 46.8446 118.359 46.8426V46.8526Z" fill="#BC8762"/>
<path d="M99.6892 63.9999C99.5354 64.0006 99.383 63.9704 99.2409 63.9112C99.0988 63.852 98.9698 63.7649 98.8614 63.655C98.753 63.5451 98.6674 63.4146 98.6095 63.271C98.5516 63.1275 98.5227 62.9738 98.5244 62.8189V54.0971C98.5224 52.1571 97.7565 50.2971 96.3948 48.9253C95.033 47.5535 93.1867 46.7819 91.2609 46.7799C87.2701 46.7799 84 50.0063 84 53.9715H81.6778C81.6426 52.0546 80.8619 50.2283 79.5039 48.8853C78.1458 47.5423 76.3187 46.7899 74.4157 46.7899C72.5126 46.7899 70.6856 47.5423 69.3275 48.8853C67.9694 50.2283 67.1888 52.0546 67.1535 53.9715V62.7058C67.1608 62.864 67.1362 63.022 67.0811 63.1703C67.026 63.3186 66.9417 63.4541 66.8331 63.5686C66.7246 63.6831 66.5941 63.7743 66.4496 63.8366C66.3051 63.8989 66.1496 63.931 65.9924 63.931C65.8352 63.931 65.6797 63.8989 65.5352 63.8366C65.3907 63.7743 65.2602 63.6831 65.1517 63.5686C65.0432 63.4541 64.9588 63.3186 64.9037 63.1703C64.8487 63.022 64.824 62.864 64.8313 62.7058V53.9715C64.8309 51.821 65.5432 49.732 66.8552 48.0357C68.1672 46.3395 70.0039 45.133 72.0739 44.6078C74.1438 44.0826 76.3286 44.2686 78.2817 45.1365C80.2348 46.0043 81.8444 47.5042 82.8551 49.3982C83.8912 47.5298 85.5129 46.0601 87.4664 45.2191C89.42 44.3781 91.5951 44.2133 93.6516 44.7504C95.7081 45.2875 97.5297 46.4962 98.8316 48.1874C100.134 49.8786 100.842 51.9569 100.847 54.0971V62.8189C100.848 62.9732 100.819 63.1263 100.762 63.2693C100.705 63.4123 100.62 63.5425 100.512 63.6523C100.405 63.7621 100.276 63.8494 100.135 63.909C99.9939 63.9687 99.8424 63.9996 99.6892 63.9999Z" fill="#BC8762"/>
<path d="M82.8434 63.9996C82.6909 63.9996 82.5399 63.9693 82.399 63.9105C82.2581 63.8516 82.1302 63.7653 82.0224 63.6565C81.9147 63.5478 81.8293 63.4187 81.7712 63.2766C81.713 63.1346 81.6833 62.9823 81.6836 62.8287V53.9712C81.6974 53.6704 81.8258 53.3865 82.042 53.1785C82.2583 52.9705 82.5457 52.8545 82.8447 52.8545C83.1436 52.8545 83.4311 52.9705 83.6473 53.1785C83.8636 53.3865 83.9919 53.6704 84.0058 53.9712V62.8186C84.0074 62.9734 83.9786 63.1268 83.9209 63.2702C83.8632 63.4136 83.7778 63.544 83.6696 63.6539C83.5615 63.7637 83.4328 63.8509 83.291 63.9102C83.1491 63.9696 82.997 64 82.8434 63.9996V63.9996Z" fill="#BC8762"/>
<path d="M0.534898 62.8775C0.497483 62.5684 0.450092 62.3172 0.415171 62.0659C0.380251 61.8146 0.35032 61.5332 0.320388 61.2668C0.260525 60.7366 0.213133 60.2064 0.17073 59.6762C0.0909125 58.6075 0.0335436 57.5437 -0.00137663 56.485C-0.0412854 54.3643 0.0360379 52.2435 0.200662 50.1278C0.531917 45.8808 1.28395 41.6778 2.44553 37.5815C3.03371 35.5256 3.7408 33.5061 4.56319 31.5333L4.8675 30.7921L5.19675 30.0583C5.42123 29.5734 5.63075 29.0809 5.86771 28.5984C6.34662 27.6411 6.81804 26.6762 7.35182 25.7464C7.8856 24.8167 8.43185 23.892 8.99307 22.9824C9.28241 22.5301 9.5917 22.0929 9.89102 21.6456L10.3425 20.9797C10.4921 20.7561 10.6618 20.5475 10.8189 20.3314L11.7817 19.0399C12.1109 18.6152 12.4577 18.2056 12.7969 17.7835C13.4678 16.9468 14.1837 16.1402 14.9195 15.3537C17.8642 12.1976 21.2206 9.45876 24.8967 7.21232C28.5699 4.95605 32.5147 3.18271 36.6349 1.93553C38.6962 1.31265 40.7982 0.835739 42.9255 0.508279C45.0657 0.175686 47.2278 0.00768332 49.3932 0.00572742C51.6027 -0.010609 53.8076 0.210083 55.9707 0.664071C57.098 0.900418 58.2023 1.23676 59.2707 1.66917C60.4398 2.13436 61.5271 2.78595 62.4908 3.59897C63.0343 4.07006 63.5066 4.61861 63.8926 5.22724C63.9949 5.38806 64.0847 5.56395 64.177 5.7298L64.2119 5.79513L64.2493 5.88559L64.3241 6.06399C64.3715 6.18712 64.4164 6.31527 64.4588 6.43086C64.5243 6.67463 64.5752 6.92217 64.611 7.17212C64.6334 7.4234 64.6384 7.64452 64.6384 7.88072C64.5917 8.66502 64.3952 9.43288 64.0597 10.1422C63.7966 10.7262 63.481 11.2847 63.1169 11.8107C62.4492 12.7462 61.7059 13.6245 60.8945 14.4365C60.1187 15.2255 59.3156 15.9567 58.4974 16.6553C56.8612 18.0524 55.1626 19.3188 53.434 20.5274C51.7055 21.7361 49.937 22.8668 48.1386 23.9473C44.5421 26.0983 40.8253 28.038 37.0066 29.7568C35.0884 30.6111 33.1429 31.4102 31.135 32.0937C30.1373 32.4354 29.1096 32.7445 28.067 33.0133C27.0014 33.2942 25.918 33.5015 24.8244 33.634C24.2449 33.7006 23.6615 33.7275 23.0784 33.7144C22.422 33.7035 21.7704 33.5995 21.1428 33.4053C20.9657 33.34 20.7911 33.2696 20.6165 33.1943C20.4419 33.1189 20.2598 32.9958 20.0852 32.8827C19.91 32.7504 19.7433 32.6069 19.5864 32.453C19.4323 32.293 19.2944 32.1179 19.1748 31.9303C19.0556 31.7437 18.9545 31.546 18.873 31.3398C18.798 31.1424 18.7396 30.939 18.6984 30.7318C18.6587 30.5381 18.6353 30.3414 18.6286 30.1438C18.6148 29.9598 18.6148 29.775 18.6286 29.591C18.6836 28.9404 18.8349 28.3018 19.0775 27.6963C19.2882 27.1517 19.5383 26.6235 19.8258 26.1158C20.3763 25.1605 21.0045 24.2528 21.704 23.402C23.0528 21.7532 24.5326 20.2179 26.1289 18.8112C27.6951 17.4096 29.3408 16.1007 31.0576 14.8913C34.474 12.4794 38.1405 10.4488 41.9927 8.83557C43.9146 8.03438 45.893 7.37841 47.9116 6.8731C49.9318 6.38349 51.996 6.10146 54.0726 6.03133V6.03133C54.1008 6.03367 54.1272 6.04624 54.147 6.06671C54.1668 6.08719 54.1785 6.11418 54.18 6.14269C54.1815 6.1712 54.1727 6.1993 54.1553 6.22179C54.1378 6.24428 54.1129 6.25963 54.085 6.26501C49.9944 6.55398 46.011 7.77267 42.267 9.45371C38.5214 11.1552 34.9703 13.2615 31.6762 15.7356C30.024 16.9677 28.4418 18.2923 26.9371 19.7033C25.4351 21.0995 24.0463 22.6145 22.7841 24.2338C22.1555 25.046 21.5893 25.9053 21.0904 26.8043C20.619 27.7064 20.195 28.6688 20.1301 29.6764C20.0807 30.1687 20.1948 30.6635 20.4544 31.0835C20.7323 31.4908 21.1453 31.7849 21.6192 31.9128C22.577 32.1967 23.6147 32.1364 24.6124 32.0158C25.6234 31.871 26.6234 31.6569 27.6055 31.375C28.6033 31.1011 29.5686 30.782 30.5314 30.4327C32.4619 29.7342 34.3526 28.9251 36.2159 28.0632C39.9419 26.3161 43.5646 24.3537 47.0661 22.1859C50.5581 20.0173 53.9603 17.678 57.0657 14.9893C58.6147 13.6375 60.1113 12.2002 61.2586 10.5292C61.5477 10.1161 61.7982 9.67705 62.0069 9.21751C62.2111 8.77423 62.3297 8.29581 62.3561 7.80785C62.3561 7.68975 62.3561 7.57165 62.3412 7.45606C62.3262 7.34047 62.3012 7.2274 62.2688 7.11684C62.2364 7.00628 62.1915 6.90325 62.1366 6.79521C62.0818 6.68716 62.0219 6.57911 61.9545 6.4786C61.6849 6.06324 61.3563 5.6899 60.9793 5.37047C60.2009 4.7317 59.3259 4.2227 58.3877 3.86281C57.4444 3.48996 56.4704 3.20155 55.4768 3.00094C53.478 2.6032 51.4429 2.42042 49.4057 2.45567C45.3206 2.52823 41.2662 3.18301 37.3632 4.40055C33.4599 5.59785 29.7247 7.29349 26.2486 9.44617C24.5096 10.5189 22.843 11.7067 21.26 13.0017C19.6965 14.3025 18.2184 15.7042 16.8352 17.198C14.0677 20.1978 11.6668 23.5207 9.68399 27.0958C9.18513 27.9778 8.72867 28.8974 8.27222 29.8071C8.04773 30.2644 7.84569 30.7343 7.63368 31.1966L7.3169 31.8927L7.02756 32.6013C6.24125 34.486 5.56579 36.4158 5.00468 38.3806C3.88368 42.3027 3.15586 46.3282 2.83215 50.3966C2.66503 52.4269 2.58272 54.4648 2.62013 56.4976C2.64009 57.5128 2.68498 58.5262 2.75483 59.538C2.79224 60.0406 2.83464 60.5431 2.88702 61.0457C2.91446 61.297 2.9419 61.5483 2.97432 61.7995C3.00675 62.0508 3.03918 62.3021 3.0741 62.5132C3.11536 62.8456 3.02705 63.1812 2.82773 63.4493C2.62842 63.7175 2.33363 63.8974 2.00538 63.9511C1.67712 64.0048 1.34099 63.9281 1.06767 63.7373C0.794359 63.5464 0.605165 63.2563 0.539886 62.9278L0.534898 62.8775Z" fill="#BC8762"/>
<path d="M121.61 35.6456C124.715 33.4042 126.885 30.6553 126.96 29.4215C127.11 27.2178 123.845 25.788 120.5 28.5722C118.392 30.3311 117.33 33.5324 117.856 35.917C112.82 38.4599 114.015 35.4345 114.693 33.3766C115.626 30.5372 116.339 27.6676 114.384 27.0344C112.428 26.4012 108.809 30.7105 108.809 30.7105C109.118 28.8787 108.961 27.7555 108.101 27.1927C105.911 25.9664 101.745 31.2784 101.745 31.2784C101.84 30.0597 103.12 26.959 103.12 26.959L99.8245 27.6022C98.7449 29.6237 98.0367 31.8251 97.7343 34.1002C94.6888 37.9825 93.9255 35.9823 94.0103 34.6531C94.0951 33.3238 96.1031 27.0143 96.1031 27.0143H95.3373L92.5562 28.5646C90.7129 24.3432 83.5243 29.4064 83.1227 34.1656C81.5239 35.9245 80.2069 36.5426 79.4985 35.8265C78.5357 34.8541 81.8157 27.0319 81.8157 27.0319L80.5685 27.0871C79.294 29.7532 77.2237 30.6904 76.6226 30.5698C77.5155 28.1048 77.513 26.9188 75.9242 27.0168C74.3353 27.1148 73.9287 28.7355 73.5172 30.0321C73.1056 31.3287 74.662 31.9996 74.662 31.9996C74.662 31.9996 72.8362 34.6907 70.4442 36.2713C69.8131 36.6828 69.0491 36.8341 68.3103 36.6937C67.5716 36.5534 66.9147 36.1322 66.4758 35.5174L66.5606 35.4697C67.4834 34.8993 73.9661 30.5522 71.4194 27.841C69.0124 25.9564 64.9817 28.2631 63.5649 31.198C62.8231 32.6714 62.6031 34.3557 62.9413 35.9722C62.3708 36.1579 61.7871 36.2998 61.1953 36.3969C55.9298 37.2663 55.4584 34.6732 55.7777 32.0724C56.097 29.4717 57.4613 28.3611 58.0675 28.2204C58.2133 28.1772 58.3672 28.169 58.5167 28.1965C58.6662 28.2241 58.8073 28.2865 58.9285 28.3788C59.0498 28.4712 59.1479 28.5909 59.2149 28.7283C59.282 28.8657 59.3161 29.0171 59.3146 29.1702C59.3595 29.924 59.0328 31.1226 59.1849 31.2834C59.3371 31.4443 61.5345 30.5522 61.8713 29.9944C62.4674 28.1651 60.6366 27.2505 60.6366 27.2505C57.0573 25.871 53.6526 30.0145 52.9392 32.5273C52.2258 35.04 52.378 37.603 55.1067 38.6961C57.8355 39.7891 63.4701 37.1884 63.4701 37.1884C64.1486 38.3368 65.4656 38.7488 65.4656 38.7488C71.0254 40.3193 75.8394 32.08 75.8394 32.08C76.6146 31.9901 77.3638 31.7431 78.0418 31.3538C76.3831 33.3866 74.7992 38.1684 77.306 38.8619C79.8128 39.5554 83.1077 35.7386 83.1077 35.7386C83.1452 36.3165 83.7613 39.0227 86.0585 39.0051C88.3558 38.9876 90.8301 35.1531 90.8301 35.1531C90.7652 35.8516 90.7628 39.1031 92.8555 38.9775C94.9482 38.8519 97.6271 35.7662 97.6271 35.7662L97.7293 38.9348L100.77 38.2111C100.77 38.2111 100.952 35.241 101.199 33.9093C101.396 32.8489 101.648 32.5373 103.711 30.5321C106.534 27.7907 105.115 31.977 104.841 33.3288C104.566 34.6807 103.514 38.98 103.514 38.98L107.006 38.1935C107.006 38.1935 107.609 35.8114 108.003 34.1229C108.397 32.4343 108.442 32.281 110.435 30.399C112.164 29.0345 112.565 29.4944 111.231 33.2409C110.051 37.0527 110.56 39.0202 112.84 38.9675C114.822 38.8913 116.766 38.3857 118.537 37.4849C119.021 38.1548 119.73 38.6245 120.532 38.8066C124.63 39.8117 127.988 34.7108 127.988 34.7108V34.0098C124.987 37.6256 122.782 37.2739 121.61 35.6456ZM91.0047 32.6303C90.0294 35.3717 88.3732 36.902 87.2957 36.2562C86.2181 35.6104 86.298 33.7861 87.2957 31.3814C87.2957 31.3814 88.5578 28.1475 90.1741 28.1149C91.7904 28.0822 91.9825 29.9014 91.0047 32.6428V32.6303ZM120.909 34.1731C120.437 32.5876 120.804 30.7809 121.657 29.6904C123.954 26.7705 129.509 28.7757 120.956 34.1404L120.909 34.1731ZM65.8497 34.3842C65.3783 32.7986 65.7424 30.992 66.598 29.9014C68.8952 26.9816 74.4525 28.9868 65.8996 34.3515L65.8497 34.3842Z" fill="#BC8762"/>
</g>
<defs>
<clipPath id="clip0">
<rect width="128" height="64" fill="white"/>
</clipPath>
</defs>
</svg>
